<svg width="15" height="13" viewBox="0 0 15 13" fill="none" xmlns="http://www.w3.org/2000/svg">
<path d="M12.2885 10.8333H2.95516V12C2.95516 12.1326 3.00784 12.2598 3.10161 12.3536C3.19537 12.4473 3.32255 12.5 3.45516 12.5H11.7885C11.9211 12.5 12.0483 12.4473 12.142 12.3536C12.2358 12.2598 12.2885 12.1326 12.2885 12V10.8333Z" fill="black"/>
<path d="M13.4892 4.23367C13.438 4.19515 13.3768 4.17218 13.3129 4.16751C13.249 4.16284 13.1851 4.17667 13.1288 4.20733L9.78383 6.03367L7.92849 1.70333C7.90278 1.6434 7.86006 1.59233 7.80561 1.55644C7.75116 1.52055 7.68737 1.50142 7.62216 1.50142C7.55695 1.50142 7.49316 1.52055 7.43871 1.55644C7.38426 1.59233 7.34154 1.6434 7.31583 1.70333L5.46016 6.03333L2.11516 4.207C2.05895 4.17624 1.99506 4.16234 1.93115 4.16696C1.86725 4.17157 1.80602 4.19451 1.75481 4.23302C1.7036 4.27153 1.66458 4.32399 1.64241 4.38411C1.62024 4.44423 1.61588 4.50946 1.62983 4.572L2.96316 10.9053C2.97955 10.9794 3.02072 11.0457 3.07987 11.0932C3.13903 11.1407 3.21262 11.1666 3.28849 11.1667H11.9552C12.031 11.1667 12.1047 11.1409 12.1639 11.0934C12.2231 11.046 12.2644 10.9797 12.2808 10.9057L13.6142 4.57233C13.628 4.50984 13.6236 4.44467 13.6015 4.38461C13.5793 4.32456 13.5403 4.27215 13.4892 4.23367ZM4.62183 10.5C4.5559 10.5 4.49145 10.4805 4.43664 10.4438C4.38182 10.4072 4.3391 10.3551 4.31387 10.2942C4.28864 10.2333 4.28204 10.1663 4.2949 10.1016C4.30776 10.037 4.33951 9.97758 4.38612 9.93096C4.43274 9.88435 4.49214 9.8526 4.5568 9.83974C4.62146 9.82688 4.68848 9.83348 4.74939 9.85871C4.8103 9.88394 4.86236 9.92666 4.89898 9.98148C4.93561 10.0363 4.95516 10.1007 4.95516 10.1667C4.95516 10.2551 4.92004 10.3399 4.85753 10.4024C4.79502 10.4649 4.71023 10.5 4.62183 10.5ZM5.62183 10.5C5.5559 10.5 5.49145 10.4805 5.43664 10.4438C5.38182 10.4072 5.3391 10.3551 5.31387 10.2942C5.28864 10.2333 5.28204 10.1663 5.2949 10.1016C5.30776 10.037 5.33951 9.97758 5.38612 9.93096C5.43274 9.88435 5.49214 9.8526 5.5568 9.83974C5.62146 9.82688 5.68848 9.83348 5.74939 9.85871C5.8103 9.88394 5.86236 9.92666 5.89898 9.98148C5.93561 10.0363 5.95516 10.1007 5.95516 10.1667C5.95516 10.2551 5.92004 10.3399 5.85753 10.4024C5.79502 10.4649 5.71023 10.5 5.62183 10.5ZM6.62183 10.5C6.5559 10.5 6.49145 10.4805 6.43664 10.4438C6.38182 10.4072 6.3391 10.3551 6.31387 10.2942C6.28864 10.2333 6.28204 10.1663 6.2949 10.1016C6.30776 10.037 6.33951 9.97758 6.38612 9.93096C6.43274 9.88435 6.49214 9.8526 6.5568 9.83974C6.62146 9.82688 6.68848 9.83348 6.74939 9.85871C6.8103 9.88394 6.86236 9.92666 6.89898 9.98148C6.93561 10.0363 6.95516 10.1007 6.95516 10.1667C6.95516 10.2551 6.92004 10.3399 6.85753 10.4024C6.79502 10.4649 6.71023 10.5 6.62183 10.5ZM7.62183 10.5C7.5559 10.5 7.49145 10.4805 7.43664 10.4438C7.38182 10.4072 7.3391 10.3551 7.31387 10.2942C7.28864 10.2333 7.28204 10.1663 7.2949 10.1016C7.30776 10.037 7.33951 9.97758 7.38612 9.93096C7.43274 9.88435 7.49214 9.8526 7.5568 9.83974C7.62146 9.82688 7.68848 9.83348 7.74939 9.85871C7.8103 9.88394 7.86236 9.92666 7.89898 9.98148C7.93561 10.0363 7.95516 10.1007 7.95516 10.1667C7.95516 10.2551 7.92004 10.3399 7.85753 10.4024C7.79502 10.4649 7.71023 10.5 7.62183 10.5ZM8.62183 10.5C8.5559 10.5 8.49145 10.4805 8.43664 10.4438C8.38182 10.4072 8.3391 10.3551 8.31387 10.2942C8.28864 10.2333 8.28204 10.1663 8.2949 10.1016C8.30776 10.037 8.33951 9.97758 8.38612 9.93096C8.43274 9.88435 8.49214 9.8526 8.5568 9.83974C8.62146 9.82688 8.68848 9.83348 8.74939 9.85871C8.8103 9.88394 8.86236 9.92666 8.89898 9.98148C8.93561 10.0363 8.95516 10.1007 8.95516 10.1667C8.95516 10.2551 8.92004 10.3399 8.85753 10.4024C8.79502 10.4649 8.71023 10.5 8.62183 10.5ZM9.62183 10.5C9.5559 10.5 9.49145 10.4805 9.43664 10.4438C9.38182 10.4072 9.3391 10.3551 9.31387 10.2942C9.28864 10.2333 9.28204 10.1663 9.2949 10.1016C9.30776 10.037 9.33951 9.97758 9.38612 9.93096C9.43274 9.88435 9.49214 9.8526 9.5568 9.83974C9.62146 9.82688 9.68848 9.83348 9.74939 9.85871C9.8103 9.88394 9.86236 9.92666 9.89898 9.98148C9.93561 10.0363 9.95516 10.1007 9.95516 10.1667C9.95516 10.2551 9.92004 10.3399 9.85753 10.4024C9.79502 10.4649 9.71023 10.5 9.62183 10.5ZM10.6218 10.5C10.5559 10.5 10.4915 10.4805 10.4366 10.4438C10.3818 10.4072 10.3391 10.3551 10.3139 10.2942C10.2886 10.2333 10.282 10.1663 10.2949 10.1016C10.3078 10.037 10.3395 9.97758 10.3861 9.93096C10.4327 9.88435 10.4921 9.8526 10.5568 9.83974C10.6215 9.82688 10.6885 9.83348 10.7494 9.85871C10.8103 9.88394 10.8624 9.92666 10.899 9.98148C10.9356 10.0363 10.9552 10.1007 10.9552 10.1667C10.9552 10.2551 10.92 10.3399 10.8575 10.4024C10.795 10.4649 10.7102 10.5 10.6218 10.5Z" fill="black"/>
<path d="M7.62183 3.16667C8.35821 3.16667 8.95516 2.56971 8.95516 1.83333C8.95516 1.09695 8.35821 0.5 7.62183 0.5C6.88545 0.5 6.28849 1.09695 6.28849 1.83333C6.28849 2.56971 6.88545 3.16667 7.62183 3.16667Z" fill="black"/>
<path d="M1.95516 5.83333C2.69154 5.83333 3.28849 5.23638 3.28849 4.5C3.28849 3.76362 2.69154 3.16667 1.95516 3.16667C1.21878 3.16667 0.621826 3.76362 0.621826 4.5C0.621826 5.23638 1.21878 5.83333 1.95516 5.83333Z" fill="black"/>
<path d="M13.2885 5.83333C14.0249 5.83333 14.6218 5.23638 14.6218 4.5C14.6218 3.76362 14.0249 3.16667 13.2885 3.16667C12.5521 3.16667 11.9552 3.76362 11.9552 4.5C11.9552 5.23638 12.5521 5.83333 13.2885 5.83333Z" fill="black"/>
</svg>
